<?xml version="1.0" standalone="no"?>
<!DOCTYPE svg PUBLIC "-//W3C//DTD SVG 20010904//EN"
 "http://www.w3.org/TR/2001/REC-SVG-20010904/DTD/svg10.dtd">
<svg version="1.0" xmlns="http://www.w3.org/2000/svg"
 width="300.000000pt" height="300.000000pt" viewBox="0 0 300.000000 300.000000"
 preserveAspectRatio="xMidYMid meet">
<metadata>
Created by potrace 1.10, written by Peter Selinger 2001-2011
</metadata>
<g transform="translate(0.000000,300.000000) scale(0.100000,-0.100000)"
fill="#000000" stroke="none">
<path d="M1350 2475 c-261 -47 -468 -167 -618 -358 -145 -185 -213 -378 -215
-612 -2 -167 28 -294 103 -446 125 -253 355 -437 645 -516 87 -23 118 -27 240
-26 118 0 155 4 238 26 327 87 593 338 695 657 36 113 46 181 45 310 -1 100
-6 145 -27 225 -46 177 -131 329 -254 453 -80 81 -107 102 -215 165 -128 74
-236 110 -387 127 -108 13 -157 11 -250 -5z m375 -55 c354 -94 604 -346 697
-701 32 -124 30 -318 -4 -449 -47 -178 -126 -315 -250 -439 -206 -204 -492
-306 -766 -272 -231 28 -413 115 -570 273 -127 128 -207 269 -254 451 -30 114
-30 306 0 429 97 393 396 665 807 732 66 10 261 -3 340 -24z"/>
<path d="M1440 2399 c-92 -9 -182 -35 -278 -80 -248 -115 -426 -324 -509 -596
-24 -80 -27 -103 -27 -253 0 -144 3 -174 23 -240 12 -41 25 -83 28 -93 3 -9
14 -17 24 -17 23 0 24 -5 -5 82 -157 471 131 1000 621 1140 101 29 315 32 408
6 271 -75 467 -248 568 -499 83 -210 74 -471 -23 -685 -198 -437 -697 -644
-1120 -465 -95 41 -166 88 -249 166 -57 55 -72 64 -77 50 -16 -41 200 -208
333 -258 227 -84 471 -74 687 27 259 122 463 379 523 661 18 85 20 278 4 360
-24 118 -80 250 -144 345 -75 108 -223 229 -354 286 -117 52 -290 77 -433 63z"/>
<path d="M1360 2319 c-52 -9 -144 -39 -138 -45 2 -1 32 5 68 14 96 23 315 22
400 -2 82 -24 214 -84 276 -126 162 -112 282 -296 335 -515 l19 -80 -5 65 c-4
68 -36 174 -75 250 -99 194 -288 352 -505 420 -80 25 -281 36 -375 19z"/>
<path d="M1250 1823 c-8 -3 -25 -15 -38 -27 -22 -19 -24 -20 -33 -3 -6 10 -22
17 -39 17 l-30 0 0 -67 c0 -38 -3 -104 -6 -148 -8 -97 3 -115 69 -115 87 0
160 38 192 100 25 49 30 132 10 174 -25 53 -84 85 -125 69z m40 -90 c18 -23
21 -37 17 -76 -5 -54 -30 -88 -89 -118 l-38 -19 0 75 c0 81 17 136 47 154 28
16 40 13 63 -16z"/>
<path d="M1824 1791 c-17 -10 -40 -31 -51 -45 -26 -33 -31 -33 -35 1 -2 21
-10 29 -34 34 l-31 6 -6 -100 c-7 -113 0 -137 42 -137 36 0 42 7 30 37 -12 33
4 94 37 133 35 41 46 30 38 -40 -10 -89 -2 -110 42 -110 35 0 36 1 31 28 -3
15 -2 61 4 101 13 107 -4 130 -67 92z"/>
<path d="M1580 1748 c0 -20 -1 -20 -18 -5 -28 25 -84 22 -116 -8 -53 -49 -64
-148 -21 -190 43 -44 100 -25 127 43 11 28 12 27 22 -20 5 -24 12 -28 39 -28
l32 0 0 103 c0 56 -4 108 -8 115 -5 6 -19 12 -33 12 -18 0 -24 -5 -24 -22z
m-12 -45 c4 -29 -32 -111 -53 -119 -45 -18 -64 80 -23 123 29 30 72 28 76 -4z
m52 -63 l-7 -65 -1 75 c-1 40 2 70 6 65 5 -6 6 -39 2 -75z"/>
<path d="M2028 1388 c-3 -62 -3 -119 0 -125 2 -7 15 -13 29 -13 24 0 25 2 19
45 -5 29 -4 45 3 45 6 0 11 -11 11 -23 0 -13 8 -31 18 -40 29 -26 60 -21 81
14 l19 30 6 -26 c5 -21 12 -26 33 -23 26 3 26 3 24 83 -1 43 -5 83 -7 87 -10
15 -44 8 -44 -9 0 -13 -3 -14 -12 -5 -16 16 -60 15 -83 -2 -11 -8 -25 -29 -32
-47 -12 -31 -12 -29 -7 33 6 60 4 67 -14 77 -12 6 -25 11 -30 11 -5 0 -12 -51
-14 -112z m176 -12 c-2 -45 -36 -88 -56 -68 -20 20 -14 73 12 94 32 26 45 18
44 -26z"/>
<path d="M1933 1413 c-36 -7 -73 -59 -73 -101 0 -43 6 -55 38 -71 27 -14 69
-7 95 16 23 21 22 36 -2 23 -27 -14 -56 -13 -70 4 -9 11 -5 15 21 20 43 9 68
33 68 68 0 21 -6 31 -26 38 -14 6 -26 9 -27 9 -1 -1 -12 -4 -24 -6z m34 -40
c7 -17 -28 -53 -53 -53 -11 0 -11 6 -3 27 16 42 45 56 56 26z"/>
<path d="M1262 1278 l3 -123 25 0 c21 0 24 4 20 25 -6 34 -4 75 5 137 8 58 -3
83 -37 83 -17 0 -18 -8 -16 -122z"/>
<path d="M1799 1392 c-1 -4 -1 -10 0 -14 2 -12 -13 -10 -26 3 -7 7 -24 8 -42
4 -86 -19 -95 -175 -10 -175 26 0 33 6 55 53 l25 52 -7 -55 c-10 -89 -41 -118
-95 -90 -27 15 -25 -5 3 -24 30 -21 81 -20 101 2 26 28 34 62 38 151 4 79 3
84 -18 92 -13 5 -24 5 -24 1z m-14 -42 c9 -14 -12 -75 -31 -90 -18 -16 -44 4
-44 34 0 46 56 87 75 56z"/>
<path d="M995 1362 c-3 -3 -5 -12 -5 -20 0 -22 -60 -142 -71 -142 -5 0 -9 9
-9 20 0 32 -31 100 -51 110 -42 23 -46 15 -52 -102 -6 -119 1 -142 41 -131 15
3 17 15 14 86 -4 87 6 93 27 20 10 -36 16 -43 36 -43 19 0 30 10 46 42 25 48
47 73 57 63 4 -3 0 -11 -9 -16 -18 -10 -34 -85 -23 -112 3 -9 16 -17 29 -17
21 0 22 4 28 107 3 58 3 112 0 119 -5 13 -49 25 -58 16z"/>
<path d="M1576 1340 c-33 -30 -36 -30 -36 -11 0 12 -4 21 -9 21 -5 0 -16 2
-24 6 -11 4 -16 -10 -21 -69 -8 -87 -2 -107 30 -107 21 0 24 4 22 39 -1 40 27
101 50 109 10 3 12 -9 7 -55 -8 -64 6 -90 42 -79 16 5 18 17 17 88 -1 76 -3
83 -21 86 -13 2 -36 -10 -57 -28z"/>
<path d="M1380 1339 c-28 -11 -59 -47 -60 -68 0 -8 8 -20 18 -27 16 -13 16
-14 0 -8 -13 4 -18 1 -18 -12 0 -27 12 -41 41 -52 33 -13 74 -5 95 19 23 25
15 31 -24 17 -27 -11 -34 -10 -49 5 -16 16 -16 17 2 17 11 0 35 9 53 20 24 15
32 27 32 50 0 44 -37 60 -90 39z m45 -44 c0 -20 -49 -55 -60 -43 -4 3 1 20 10
38 18 35 50 38 50 5z"/>
<path d="M1190 1304 c0 -14 -3 -15 -12 -6 -27 27 -83 9 -106 -35 -45 -84 38
-183 87 -103 l18 30 11 -25 c12 -25 20 -29 44 -20 10 4 12 25 8 88 -5 76 -7
82 -27 85 -17 2 -23 -2 -23 -14z m-10 -28 c9 -12 7 -24 -9 -60 -11 -25 -24
-46 -28 -46 -33 0 -44 71 -16 102 19 22 36 23 53 4z"/>
<path d="M700 1292 c0 -25 52 -166 81 -217 37 -65 107 -148 178 -208 163 -140
362 -206 579 -194 85 4 229 33 219 43 -2 2 -41 -3 -88 -11 -224 -40 -444 5
-620 125 -86 59 -104 75 -190 179 -65 78 -85 111 -119 195 -21 56 -40 95 -40
88z"/>
</g>
</svg>
